<svg xmlns="http://www.w3.org/2000/svg" width="1174" height="445" style="shape-rendering:geometricPrecision;text-rendering:geometricPrecision;image-rendering:optimizeQuality;fill-rule:evenodd;clip-rule:evenodd"><path fill="#f7f7f7" d="M514 0h5c14 0 27 3 41 10l21 12a322 322 0 0 0 21 18l11 13 1-1a260 260 0 0 1 25 32l3 3c-2 0-2 1-1 2l8 10 1-1a580 580 0 0 1 35 54l14 20 1-1 4 6h-1a483 483 0 0 0 43 59c-2 0-2 1-1 2a185 185 0 0 0 20 22c-2 0-2 1-1 2a216 216 0 0 0 24 24l-2-91c-1-23 1-45 6-66 3-12 9-23 17-32 2-2 5-4 9-5v1l6-4c10-5 21-6 33-5 13 2 25 5 38 11l4 3 1-1c6 2 13 5 19 10l8 6 1-1 16 10h-1a1113 1113 0 0 1 86 68 998 998 0 0 1 112 119c9 9 16 19 22 31h2l9 15v4l-12-5c-2-2-4-4-6-4l-1 1-4-3-18-13c-1-1-2-1-2 1l-3-3c-7-7-14-12-21-16-3-1-5-3-6-5-2-3-3-4-5-4l-6-4 1-1-8-7a13580 13580 0 0 0-101-76 2205 2205 0 0 1-13-9l-7-4-1 1a867 867 0 0 0-33-23l-15-8-1 1-7-4-14-8-1 1-9-4c-1-2-3-3-5-3l-1 1-10-2v24l8 80c1 21 1 42-1 63-2 17-7 34-17 49l-15 14-1-1c-4 1-7 3-9 5-8 3-16 4-24 4-11 0-20-2-29-6-11-6-21-12-31-20-1-1-2-1-2 1l-3-3-23-19a544 544 0 0 1-29-28 1537 1537 0 0 0-60-69l-15-19-14-19v1a450 450 0 0 1-40-57 113279 113279 0 0 1-35-49c-3-4-6-6-9-6-4-1-8-1-11 1-19 10-35 24-48 41-27 34-53 70-77 107-18 25-38 50-58 75-14 15-30 28-47 39a71 71 0 0 1-65 1c-5-3-10-6-13-10l1-1a684 684 0 0 1-20-27l1-1-3-4-13-33L62 403a572 572 0 0 1-52 42H9l-7-2c-1-1-2-3-1-4l2-1c2-7 6-13 10-18v1l5-7h-1c-1-1 0-2 1-2h1l8-12h-1c1-4 4-8 7-11h1a629 629 0 0 0 37-57l2-1 2-3h-1l1-1 9-12h-1c1-4 2-6 5-8l2-1a252 252 0 0 1 8-13 410 410 0 0 1 31-45c4-9 10-16 17-23a53 53 0 0 0 14-13v1a2208 2208 0 0 0 16-10h14c3 0 5 2 8 4l6 7 8 12 1 2-1 1a773 773 0 0 1 21 60c0 5 2 9 7 14v-2h2v1l12-12h-1l1-1c3-3 6-6 7-9 0-2 1-4 3-5l3-2 7-10h-1c-1-1 0-2 1-2v1l5-7h-1l8-13v1l5-7h-1l4-7h1l5-8h-1A1141 1141 0 0 1 418 49h2l10-10h-1c5-5 11-10 17-13v1l10-7v-1c17-12 36-18 58-19Z" style="opacity:1"/><path fill="#f0f4f6" d="M560 10c15 5 28 14 39 27l-18-15-21-12Z" style="opacity:.996"/><path fill="#eff3f5" d="M456 19v1l-10 7v-1c2-3 6-6 10-7Z" style="opacity:.996"/><path fill="#f0f4f6" d="m602 40 12 12-1 1-11-13Z" style="opacity:1"/><path fill="#eef2f4" d="M429 39h1l-10 10h-2l11-10Z" style="opacity:.839"/><path fill="#eef3f4" d="m412 56-9 10c2-4 5-8 9-10Z" style="opacity:.863"/><path fill="#f0f4f6" d="M631 73c3 3 6 6 8 11l-9-11h1Z" style="opacity:.541"/><path fill="#eff3f5" d="M401 68h1a928 928 0 0 0-1 0Z" style="opacity:.984"/><path fill="#f0f4f6" d="m642 87 8 11-1 1-8-10c-1-1-1-2 1-2Z" style="opacity:.814"/><path fill="#eef3f4" d="m824 89-6 4v-1c1-2 3-3 6-3Z" style="opacity:.992"/><path fill="#eef3f5" d="m895 95 5 2-1 1-4-3Z" style="opacity:.651"/><path fill="#f0f4f6" d="M374 102h1l-5 7-2 1c1-3 3-6 6-8Z" style="opacity:.565"/><path fill="#f1f5f7" d="M516 104a1674 1674 0 0 1 0 0Z" style="opacity:.565"/><path fill="#eff3f5" d="M919 107c3 0 6 2 9 5l-1 1-8-6Z" style="opacity:.776"/><path fill="#f0f4f6" d="M367 112h1l-9 12c2-5 4-9 8-12Z" style="opacity:.616"/><path fill="#eef3f4" d="m539 127-3-4c0-2 0-2 1 0l3 3-1 1Z" style="opacity:.714"/><path fill="#f0f4f6" d="M669 125Z" style="opacity:.992"/><path fill="#f0f4f5" d="M944 122Z" style="opacity:.824"/><path fill="#f0f4f5" d="m686 150 14 21-1 1-14-20c-1-1-1-2 1-2Z" style="opacity:.996"/><path fill="#f0f4f6" d="M568 172c-4-4-7-9-8-13a51 51 0 0 1 9 12l-1 1Z" style="opacity:.627"/><path fill="#eef2f4" d="m875 161 1-1c2 0 4 1 5 3l-6-2Z" style="opacity:.725"/><path fill="#f0f4f6" d="m890 167 1-1 14 8-15-7Z" style="opacity:.627"/><path fill="#f1f5f6" d="M1004 168c3 1 5 3 8 7l-8-6c-2-1-2-1 0-1Z" style="opacity:.565"/><path fill="#f1f4f6" d="M1015 177c5 3 9 8 14 13l-1 1a437 437 0 0 0-13-14Z" style="opacity:.498"/><path fill="#f0f4f6" d="m579 187-9-12c0-2 0-2 1 0l8 12Z" style="opacity:.996"/><path fill="#f0f4f6" d="m912 178 1-1 15 8v2l-16-9Z" style="opacity:.6"/><path fill="#f1f5f6" d="M704 177Z" style="opacity:.576"/><path fill="#eff3f5" d="m961 208 1-1 7 4 1 3-9-6Z" style="opacity:.992"/><path fill="#f0f3f5" d="M172 205Z" style="opacity:.996"/><path fill="#f0f4f6" d="M198 207c6 4 11 10 14 19l-8-12-6-7Z" style="opacity:.565"/><path fill="#f0f4f6" d="m732 217 8 12-9-10c-1-1-1-2 1-2Z" style="opacity:.576"/><path fill="#edf1f3" d="m159 213-13 12c3-5 8-9 13-12Z" style="opacity:.922"/><path fill="#eef3f5" d="M299 221h1l-5 8h-1c1-4 2-6 5-8Z" style="opacity:.992"/><path fill="#f1f4f6" d="M980 221c0-2 1-2 2-1l10 7 1 3-13-9Z" style="opacity:.549"/><path fill="#f1f4f6" d="M614 234c-6-6-10-12-14-18v-1l14 19Z" style="opacity:1"/><path fill="#eff3f5" d="m213 228 2 6c-2-1-3-3-3-5l1-1Z" style="opacity:.627"/><path fill="#f1f4f6" d="m746 236 10 14-11-12c-1-1-1-2 1-2Z" style="opacity:.996"/><path fill="#eef3f4" d="M290 236h1l-5 7v-1c0-3 2-5 4-6Z" style="opacity:.996"/><path fill="#f1f5f7" d="M1012 244a444 444 0 0 1 0 0Z" style="opacity:.592"/><path fill="#eff4f6" d="M129 248h1l-5 6c0-3 2-5 4-6Z" style="opacity:.651"/><path fill="#eef3f4" d="M278 255h1l-5 7v-1c0-3 2-5 4-6Z" style="opacity:.984"/><path fill="#f1f4f5" d="M765 260a228 228 0 0 0 16 20l-17-18c-1-1-1-2 1-2Z" style="opacity:.794"/><path fill="#f0f3f5" d="M273 263h1l-7 10-3 2 9-12Z" style="opacity:.659"/><path fill="#f0f4f6" d="M689 322a1307 1307 0 0 1-60-69l25 30 35 39Z" style="opacity:.796"/><path fill="#f0f4f5" d="m1049 272 1-1 8 6-1 1-8-6Z" style="opacity:.818"/><path fill="#eef3f5" d="m228 276 2 6c-2-1-3-3-3-5l1-1Z" style="opacity:.659"/><path fill="#eef3f5" d="M261 280c-1 3-4 6-7 9 1-4 4-7 7-9Z" style="opacity:.765"/><path fill="#f0f4f6" d="M1113 274Z" style="opacity:.565"/><path fill="#edf2f4" d="M253 290h1l-12 12v-1l11-11Z" style="opacity:.839"/><path fill="#f0f4f6" d="M1129 293c3 2 5 4 7 8-4-3-6-5-7-8Z" style="opacity:.794"/><path fill="#f0f4f5" d="M1081 297c0-2 1-2 2-1l8 7-1 1-9-7Z" style="opacity:1"/><path fill="#f0f4f6" d="M233 289c1 4 4 8 7 12v2c-5-5-7-9-7-14Z" style="opacity:.565"/><path fill="#f0f4f5" d="M98 293h1l-9 13-2 1c2-5 6-10 10-14Z" style="opacity:.996"/><path fill="#eef3f5" d="M1096 308c2 0 3 1 5 4-3-1-4-2-5-4Z" style="opacity:.98"/><path fill="#f0f4f6" d="M83 315h1l-9 12c2-5 4-9 8-12Z" style="opacity:.592"/><path fill="#f0f4f6" d="M1142 307c8 10 16 21 23 33h-2c-6-12-13-22-22-31-1-1-1-2 1-2Z" style="opacity:.639"/><path fill="#f0f5f6" d="M1128 333c-8-5-15-10-21-16 7 4 14 9 21 16Z" style="opacity:.592"/><path fill="#ecf2f4" d="m178 330-2-5 3 4-1 1Z" style="opacity:.88"/><path fill="#edf2f3" d="M74 328h1l-2 3-2 1 3-4Z" style="opacity:.988"/><path fill="#eef2f5" d="M184 340c-3-2-4-5-4-7 1 1 3 3 4 7Z" style="opacity:.992"/><path fill="#f1f4f6" d="M1131 336c0-2 1-2 2-1l18 13c-8-3-14-7-20-12Z" style="opacity:.549"/><path fill="#f0f4f6" d="M184 340Z" style="opacity:.592"/><path fill="#f0f4f6" d="M66 340h1l-7 10h-1c1-4 4-8 7-10Z" style="opacity:.576"/><path fill="#f0f4f6" d="M718 350Z" style="opacity:1"/><path fill="#eef3f4" d="m1155 351 1-1c2 0 4 2 6 4l-7-3Z" style="opacity:.98"/><path fill="#eff4f5" d="M58 352Z" style="opacity:.682"/><path fill="#f0f4f6" d="M744 372c0-2 1-2 2-1 10 8 20 14 31 20-12-6-23-12-33-19Z" style="opacity:.6"/><path fill="#eff3f5" d="m840 389-10 4c2-2 5-4 9-5l1 1Z" style="opacity:.694"/><path fill="#eff3f5" d="M26 400h1l-8 12h-1c2-5 4-9 8-12Z" style="opacity:.996"/><path fill="#eef3f4" d="M17 414h1l-5 7v-1c0-3 2-5 4-6Z" style="opacity:.984"/><path fill="#ebf1f2" d="M0 438h3l-2 1c-1 1 0 3 1 4l7 2H1l-1-1v-6Z" style="opacity:.984"/></svg>